<svg width="277" height="378" viewBox="0 0 277 378" fill="none" xmlns="http://www.w3.org/2000/svg">
    <path fill-rule="evenodd" clip-rule="evenodd" d="M98.5172 31.2989L145.885 14.0799L114.496 49.4738L150.507 49.4219L74.9789 88.6267L62.7015 96.7923L86.8094 95.8135L135.67 86.235L110.908 103.699L129.713 112.934L98.4916 124.039L101.582 139.98L63.1266 134.498L27.3551 135.951L26.3477 136.621L-23.3172 83.5759L-19.6384 81.1291L-13.0882 53.0927L-14.0569 16.4717L5.69646 24.9288L24.6559 0.72664L33.4497 20.968L59.4747 4.85328L39.7055 45.5032L36.4394 59.4831L44.4964 54.1244L106.266 2.81775L98.5172 31.2989Z" fill="#80CEE1"/>
    <path fill-rule="evenodd" clip-rule="evenodd" d="M90.6536 96.4769L129.567 67.9345L112.433 109.696L146.72 100.419L88.9079 157.126L80.1599 168.048L102.774 160.937L145.866 139.291L128.577 162.274L149.823 166.253L124.086 184.833L132.78 199.227L94.1682 203.86L60.6144 214.41L59.8963 215.306L47.8142 208.432L5.52813 184.374L-3.22663 179.393L-6.5533 177.5L-3.93163 174.227L-7.8058 145.839L-21.9398 111.2L-0.0705767 114.195L9.26021 86.2797L24.9398 103.309L43.9193 81.2883L39.7506 125.081L41.6822 139.234L47.426 132.063L87.7607 67.3583L90.6536 96.4769Z" fill="#80CEE1"/>
    <path fill-rule="evenodd" clip-rule="evenodd" d="M165.52 112.029L187.674 71.8865L196.871 116.209L226.695 95.3264L203.065 168.022L201.01 181.156L220.035 166.478L251.035 131.117L247.879 158.355L272.675 154.294L257.829 180.572L276.263 190.563L238.903 208.771L210.672 230.55L210.503 231.628L193.41 229.729L193.41 229.729L133.583 223.079L133.584 223.079L121.197 221.702L116.491 221.179L117.107 217.243L94.6275 192.733L57.366 166.234L82.1734 161.049L73.8072 132.191L101.254 142.058L106.802 115.086L130.872 156.569L142.079 168.787L143.428 160.162L143.593 86.4972L165.52 112.029Z" fill="#80CEE1"/>
    <path fill-rule="evenodd" clip-rule="evenodd" d="M54.0644 109.756L73.9954 67.5171L94.2521 110.446L127.598 86.4558L112.209 161.13V174.379L133.216 157.731L165.194 119.257L166.582 146.609L196.919 139.851L183.44 167.539L208.55 175.413L165.216 197.581L134.046 222.285V223.372H112.209V223.373H35.7815V223.372L19.9576 223.372L13.9455 223.372V219.402L-19.0973 197.579L-71.0904 175.413L-40.9594 167.54L-57.1343 139.851L-20.7317 146.609L-19.0655 119.257L19.3098 157.732L35.7815 168.61V159.91L21.5157 86.86L54.0644 109.756Z" fill="#80CEE1"/>
    <path fill-rule="evenodd" clip-rule="evenodd" d="M77.4224 141.661L102.173 110.263L127.329 142.175L168.74 124.341L149.63 179.851V189.699L175.716 177.324L215.428 148.724L217.153 169.056L254.827 164.033L238.088 184.615L269.27 190.468L215.458 206.946L176.748 225.31V226.119H149.63V226.119H54.7183L27.6014 226.119V223.167L-13.4323 206.945L-78 190.468L-40.5815 184.615L-60.6683 164.033L-15.4619 169.056L-13.3928 148.724L34.2636 177.325L54.7183 185.411V178.943L37.0024 124.642L77.4224 141.661Z" fill="#80CEE1"/>
    <path fill-rule="evenodd" clip-rule="evenodd" d="M87.5173 351.224L134.885 366.265L103.496 335.347L139.508 335.393L63.9776 301.145L51.7014 294.013L75.8097 294.868L124.671 303.235L99.9086 287.98L118.713 279.912L87.4917 270.212L90.5817 256.287L52.1274 261.075L16.3552 259.807L15.348 259.222L14.7806 259.751L14.7804 259.751L14.7805 259.751L-31.8303 303.238L-34.3169 305.558L-30.6382 307.695L-24.0878 332.187L-25.0565 364.176L-5.30319 356.788L13.6562 377.93L22.45 360.248L48.475 374.325L28.7056 338.815L25.4396 326.604L33.4976 331.286L95.266 376.103L87.5173 351.224Z" fill="#80CEE1"/>
    <path fill-rule="evenodd" clip-rule="evenodd" d="M79.6538 294.289L118.567 319.221L101.433 282.741L135.72 290.845L77.9091 241.311L69.1602 231.769L91.7749 237.98L134.866 256.889L117.577 236.813L138.823 233.337L113.086 217.106L121.78 204.532L83.1681 200.486L49.6142 191.27L48.8962 190.487L-17.5534 223.512L-14.9316 226.371L-18.8057 251.169L-32.9397 281.427L-11.0707 278.811L-1.7399 303.196L13.9398 288.32L32.9194 307.556L28.7507 269.302L30.6823 256.938L36.426 263.202L76.7609 319.724L79.6538 294.289Z" fill="#80CEE1"/>
    <path fill-rule="evenodd" clip-rule="evenodd" d="M154.52 280.704L176.674 315.769L185.871 277.051L215.695 295.294L192.065 231.792L190.01 220.319L209.036 233.141L240.036 264.029L236.88 240.236L261.676 243.783L246.829 220.828L265.263 212.101L227.903 196.196L199.672 177.171L199.504 176.229L182.41 177.889L182.41 177.889L122.584 183.697L122.584 183.697L110.197 184.9L105.491 185.357L106.107 188.795L83.6271 210.206L46.366 233.354L71.1734 237.883L62.8071 263.091L90.2545 254.472L95.8018 278.033L119.873 241.796L131.079 231.123L132.428 238.656L132.593 303.006L154.52 280.704Z" fill="#80CEE1"/>
    <path fill-rule="evenodd" clip-rule="evenodd" d="M43.0644 282.689L62.9955 319.586L83.2521 282.086L116.598 303.042L101.21 237.813V226.239L122.216 240.782L154.194 274.389L155.582 250.496L185.919 256.4L172.44 232.213L197.55 225.335L154.216 205.97L123.046 184.391V183.441H101.21V183.441H24.7817V183.441L8.95787 183.441L2.94554 183.441V186.91L-30.0966 205.972L-82.0903 225.335L-51.9595 232.212L-68.1345 256.4L-31.7314 250.496L-30.0652 274.389L8.31003 240.78L24.7817 231.277V238.877L10.5157 302.689L43.0644 282.689Z" fill="#80CEE1"/>
    <path fill-rule="evenodd" clip-rule="evenodd" d="M66.4223 254.819L91.1732 282.246L116.329 254.37L157.74 269.948L138.63 221.458V212.855L164.715 223.665L204.428 248.649L206.153 230.888L243.827 235.276L227.088 217.297L258.27 212.184L204.458 197.79L165.748 181.748V181.042H138.63V181.042H43.7182L16.6011 181.042V183.621L-24.4322 197.791L-89.0001 212.184L-51.5814 217.297L-71.6682 235.276L-26.4621 230.888L-24.3929 248.649L23.2632 223.665L43.7182 216.601V222.252L26.0025 269.685L66.4223 254.819Z" fill="#80CEE1"/>
</svg>
