<svg fill="#67071A" xmlns:dc="http://purl.org/dc/elements/1.1/" xmlns:cc="http://creativecommons.org/ns#" xmlns:rdf="http://www.w3.org/1999/02/22-rdf-syntax-ns#" xmlns:svg="http://www.w3.org/2000/svg" xmlns="http://www.w3.org/2000/svg" xmlns:sodipodi="http://sodipodi.sourceforge.net/DTD/sodipodi-0.dtd" xmlns:inkscape="http://www.inkscape.org/namespaces/inkscape" version="1.1" viewBox="0 0 100 125" x="0px" y="0px"><path style="" d="m 24.231195,72.46789 c -0.539546,-0.221697 -0.682878,-0.928171 -0.271794,-1.339649 l 0.232828,-0.23305 1.427951,-0.02663 1.42795,-0.02663 -0.0362,-0.397098 c -0.150254,-1.648017 -1.252834,-8.25666 -1.338752,-8.024217 -0.239595,0.648199 -1.147467,2.329918 -1.402572,2.598088 -0.404061,0.424757 -0.816174,0.451743 -1.189994,0.07792 -0.361247,-0.361246 -0.327938,-0.650765 0.17516,-1.522483 1.253814,-2.172482 1.842156,-4.562862 1.994307,-8.10268 0.116593,-2.712579 0.64052,-4.863697 1.733816,-7.118644 2.590577,-5.343127 7.774251,-8.95998 13.687982,-9.550647 0.559322,-0.05587 1.040495,-0.135759 1.069273,-0.17754 0.02878,-0.04178 0.07489,-0.291642 0.102477,-0.555246 0.110085,-1.052005 0.732602,-2.806858 1.425028,-4.017102 2.273821,-3.974252 6.515673,-6.347684 11.725257,-6.560597 4.657486,-0.190351 9.016599,1.442375 12.232465,4.581725 1.813102,1.769963 3.13896,3.896605 3.951059,6.337397 0.743598,2.23491 0.940077,3.798175 0.865666,6.887565 -0.02812,1.167233 -0.107225,2.82775 -0.1758,3.690038 -0.06858,0.862288 -0.14921,2.044492 -0.179186,2.627119 -0.02998,0.582627 -0.06841,1.104203 -0.08542,1.159058 -0.017,0.05485 0.01449,0.136721 0.06998,0.181923 0.153545,0.125075 1.593366,0.34158 2.68564,0.403839 1.250128,0.07126 1.701731,0.245054 2.045567,0.787226 0.40016,0.630988 0.314397,1.45172 -0.212259,2.031286 -0.26893,0.295948 -0.750147,0.514381 -1.61845,0.734643 -0.738635,0.187371 -1.607491,0.303511 -2.778417,0.371394 -0.196747,0.01141 -0.193466,0.32081 0.01642,1.548505 0.40695,2.380405 1.306728,4.137543 2.431263,4.747912 0.246748,0.133929 0.659332,0.257901 1.026825,0.308537 0.956097,0.13174 1.462056,0.534781 1.749831,1.393893 0.268646,0.802003 0.148486,1.76163 -0.305482,2.439658 -0.512533,0.765499 -1.147734,1.016161 -2.576761,1.016842 -2.062706,9.83e-4 -4.061542,-0.748495 -5.808947,-2.178102 -1.650205,-1.350084 -2.979672,-3.45004 -3.834832,-6.057297 -0.347253,-1.058723 -0.727977,-2.644411 -0.727977,-3.031968 0,-0.09316 -0.03543,-0.191276 -0.07873,-0.218038 -0.05798,-0.03583 -0.690606,0.0787 -0.913097,0.165314 -0.0095,0.0037 0.03657,0.462935 0.102351,1.020537 0.240464,2.038281 0.330322,4.963479 0.221409,7.207572 -0.09593,1.976576 -0.285306,4.313389 -0.398422,4.916348 l -0.05189,0.276583 1.404947,0.027 c 1.402341,0.02695 1.405376,0.02743 1.636567,0.258845 0.311445,0.311749 0.304872,0.841376 -0.0144,1.160656 l -0.217664,0.217667 -20.527739,0.01609 c -11.290256,0.0088 -20.60401,-0.01525 -20.69723,-0.05356 z m 11.768474,-2.391263 c 0.312075,-1.627959 1.164594,-3.78875 2.065422,-5.235017 0.364458,-0.585132 0.381244,-0.636276 0.236422,-0.720339 -0.24764,-0.143744 -1.417898,-1.035079 -1.699939,-1.294771 -0.814362,-0.749828 -0.85362,-1.464868 -0.09419,-1.715504 0.37984,-0.125358 0.609751,-0.02853 1.198675,0.504796 1.49919,1.357674 3.315595,2.245597 5.299633,2.590647 1.211912,0.210768 3.320596,0.129989 4.391271,-0.16822 1.885544,-0.52517 3.067355,-1.160706 4.495543,-2.417546 0.540044,-0.475251 0.672808,-0.55214 0.953389,-0.55214 0.734565,0 1.059207,0.847501 0.535914,1.399037 -0.315525,0.332554 -1.409117,1.219021 -1.837323,1.489335 -0.176972,0.111718 -0.321768,0.236883 -0.321768,0.278145 0,0.04126 0.159266,0.336334 0.353925,0.655717 0.851318,1.396786 1.682867,3.468803 1.971424,4.912313 0.07349,0.36761 0.153207,0.754595 0.17716,0.859968 l 0.04355,0.191587 3.619886,-0.0221 3.619887,-0.02209 0.0609,-0.423729 c 0.473322,-3.293465 0.5202,-8.758261 0.105409,-12.288136 L 61.0454,56.996885 60.661326,56.66467 c -0.559137,-0.483639 -1.048774,-1.239405 -1.048774,-1.618806 0,-0.628123 0.771909,-1.0354 1.237678,-0.653027 0.0981,0.08053 0.297771,0.324123 0.443725,0.541316 0.434756,0.64696 1.113701,0.960413 1.623174,0.749383 0.14011,-0.05804 0.252224,-0.129494 0.249144,-0.158797 -0.0031,-0.0293 -0.38098,-0.234541 -0.839774,-0.456086 -1.599532,-0.772386 -3.306106,-2.027306 -4.495733,-3.305908 l -0.552971,-0.594331 -0.633469,0.21775 c -0.680319,0.233855 -2.16192,0.483602 -2.868922,0.483602 h -0.434039 v 0.710608 c 0,1.023363 -0.176454,1.505653 -0.769332,2.102762 -0.263692,0.265573 -0.579822,0.508055 -0.702512,0.538848 -0.217585,0.05461 -0.223071,0.0726 -0.223071,0.731285 0,0.633387 -0.01537,0.690672 -0.247719,0.923016 -0.318703,0.318703 -0.742191,0.335669 -1.082301,0.04336 -0.210272,-0.180719 -0.242678,-0.276298 -0.28015,-0.826271 l -0.04237,-0.621913 h -0.635596 -0.635593 l -0.04237,0.621913 c -0.03747,0.549973 -0.06988,0.645552 -0.280149,0.826271 -0.270312,0.232321 -0.554932,0.258935 -0.894001,0.0836 -0.313056,-0.161888 -0.436019,-0.463548 -0.436019,-1.069665 v -0.504488 h -0.635594 -0.635593 v 0.504488 c 0,0.606117 -0.122963,0.907777 -0.436019,1.069665 -0.351952,0.182001 -0.634123,0.146566 -0.928686,-0.116626 -0.239801,-0.214262 -0.269936,-0.296822 -0.309334,-0.847458 l -0.04365,-0.610069 h -0.624207 -0.624206 v 0.599739 c 0,0.549876 -0.0206,0.620336 -0.247718,0.847458 -0.318704,0.318703 -0.742192,0.335669 -1.082302,0.04336 -0.210271,-0.180719 -0.242678,-0.276298 -0.280149,-0.826271 l -0.04237,-0.621913 h -0.635599 -0.635594 l -0.04237,0.621913 c -0.03747,0.549973 -0.06988,0.645552 -0.28015,0.826271 -0.262277,0.225415 -0.528353,0.257087 -0.866286,0.103114 -0.326351,-0.148695 -0.463734,-0.487815 -0.463734,-1.144693 v -0.576391 l -0.38428,-0.203859 c -0.461281,-0.244709 -0.84772,-0.666618 -1.089819,-1.18985 -0.175351,-0.378973 -0.17886,-0.489656 -0.202343,-6.381424 -0.01629,-4.085901 -0.05202,-5.995763 -0.112188,-5.995763 -0.04856,0 -0.476366,0.195017 -0.950679,0.433373 -3.547957,1.782945 -6.223693,4.738784 -7.628015,8.426535 -0.756101,1.98552 -1.030106,3.802128 -0.95809,6.351957 0.07113,2.518385 0.240686,4.004377 0.942802,8.262712 0.423496,2.568501 0.683823,4.34613 0.766362,5.233051 l 0.05718,0.614407 h 3.576663 3.576663 z m 16.070401,0.712631 c -3.39e-4,-0.188417 -0.443084,-1.847068 -0.63907,-2.394067 -0.279543,-0.78021 -0.998281,-2.244404 -1.427969,-2.90902 -0.244768,-0.378595 -0.352247,-0.479687 -0.460786,-0.433407 -1.484353,0.632924 -2.902605,0.910831 -4.675456,0.916157 -1.822681,0.0055 -3.098043,-0.235728 -4.830509,-0.913578 -0.08844,-0.0346 -0.220281,0.09849 -0.433317,0.437428 -1.003057,1.595875 -1.60457,3.117036 -2.060881,5.211742 -0.03057,0.140342 0.358559,0.148305 7.247895,0.148305 4.004111,0 7.280153,-0.0286 7.280093,-0.06356 z m 22.923839,-3.73884 c 0.345356,-0.07272 0.577564,-0.520761 0.508701,-0.981532 -0.06541,-0.437669 -0.173297,-0.555052 -0.510151,-0.555052 -0.465539,0 -1.351331,-0.32148 -1.905577,-0.691591 -1.557768,-1.040237 -2.597622,-3.28761 -3.01299,-6.511794 -0.07506,-0.582624 -0.142829,-1.064724 -0.1506,-1.071333 -0.0078,-0.0066 -0.567095,-0.09246 -1.242943,-0.190788 -0.675847,-0.09832 -1.715042,-0.305252 -2.309322,-0.459839 l -1.080509,-0.281066 v 0.234497 c 0,0.342303 0.319198,1.952001 0.55235,2.785474 1.220271,4.362217 3.89486,7.153907 7.413752,7.738341 0.327401,0.05438 1.453451,0.04445 1.737289,-0.01532 z M 73.336382,55.509542 c 0.692408,-0.108516 1.520264,-0.334463 1.580082,-0.43125 0.02479,-0.04011 -0.176455,-0.07386 -0.447215,-0.07499 -0.67719,-0.0028 -1.257925,-0.06582 -2.399069,-0.260227 -3.737447,-0.636707 -7.533912,-2.714127 -10.371276,-5.675145 -0.500804,-0.522629 -0.938776,-0.916401 -0.973272,-0.875047 -0.03449,0.04135 -0.229369,0.296997 -0.433052,0.568098 -0.203683,0.271102 -0.637311,0.740092 -0.963618,1.042202 l -0.593284,0.54929 0.544369,0.554522 c 2.148044,2.188103 5.272934,3.738421 8.9342,4.43243 1.781531,0.337696 3.655713,0.399942 5.122135,0.170117 z M 51.396109,53.585868 c 0.186931,-0.167037 0.274487,-0.335071 0.309105,-0.593221 l 0.0483,-0.360169 H 45.005067 38.25662 v 0.320126 c 0,0.359069 0.18188,0.672475 0.453983,0.782282 0.09989,0.04031 2.936305,0.07571 6.303155,0.07866 l 6.121545,0.0054 0.260807,-0.233051 z m 18.583755,-1.31356 c 0.02569,-0.104872 0.05496,-0.51483 0.06506,-0.911017 0.01793,-0.703561 0.0136,-0.720924 -0.18582,-0.745467 -0.561218,-0.06907 -0.860954,-0.355358 -0.860954,-0.822329 0,-0.495121 0.347849,-0.805085 0.903485,-0.805085 0.27058,0 0.283142,-0.01487 0.335546,-0.397201 0.0596,-0.434846 -0.0058,-0.529529 -0.370387,-0.5364 -0.591711,-0.01115 -0.895957,-0.837417 -0.484492,-1.315773 0.14176,-0.164806 0.300323,-0.236971 0.593221,-0.269985 l 0.399745,-0.04506 v -0.370335 c 0,-0.316829 -0.0251,-0.370335 -0.1737,-0.370335 -0.245016,0 -0.652654,-0.225947 -0.755991,-0.419035 -0.04799,-0.08967 -0.08726,-0.300758 -0.08726,-0.469076 0,-0.400789 0.295043,-0.699478 0.765206,-0.77466 l 0.353032,-0.05645 -0.05854,-0.856491 c -0.05373,-0.78615 -0.318231,-2.592744 -0.433381,-2.960076 -0.02751,-0.08776 -0.09913,-0.13497 -0.165893,-0.109352 -0.341456,0.131029 -1.694992,0.237645 -2.418375,0.190493 -2.579273,-0.168127 -4.89373,-1.413495 -6.473065,-3.483041 -0.834652,-1.093721 -1.445858,-2.523031 -1.658404,-3.878188 -0.09905,-0.631543 -0.06752,-2.470954 0.0528,-3.080047 l 0.05143,-0.260331 -0.833675,-0.149099 c -3.155909,-0.56442 -6.374295,-0.187413 -8.968048,1.050535 -2.192602,1.046486 -4.113108,2.900377 -5.161696,4.982659 -0.732815,1.455222 -1.068838,2.951612 -1.067448,4.753601 0.0032,4.208932 2.346254,7.748662 6.147931,9.288067 2.27749,0.92222 5.249782,1.012595 7.107881,0.21612 1.3275,-0.569033 2.294337,-1.515372 3.133125,-3.0667 0.650835,-1.20371 1.184428,-1.234102 1.912106,-0.108909 1.0118,1.564527 3.473108,3.649551 5.791105,4.905765 0.728383,0.394738 2.20936,1.047253 2.402013,1.058321 0.05321,0.0031 0.117761,-0.08025 0.143448,-0.185121 z m -4.926611,-5.728246 c -0.400414,-0.21351 -0.608969,-0.572187 -0.609634,-1.048466 -4.23e-4,-0.325056 0.04766,-0.454506 0.257915,-0.693979 0.745519,-0.8491 2.030262,-0.399683 2.029346,0.709887 -7.63e-4,0.908893 -0.886797,1.454243 -1.677627,1.032558 z M 48.758032,50.98848 c -0.01942,-0.01861 -0.403878,-0.222222 -0.854348,-0.452478 -3.510833,-1.79455 -5.886404,-5.384225 -6.143734,-9.283668 -0.0301,-0.456112 -0.08069,-0.845341 -0.112423,-0.864954 -0.104199,-0.0644 -1.636028,0.121722 -2.522264,0.306459 l -0.868644,0.181072 v 5.073698 5.073699 h 5.268362 c 2.897598,0 5.252471,-0.01522 5.233051,-0.03383 z M 69.127428,38.506309 c 0.391941,-0.05969 0.396275,-0.03765 -0.280228,-1.424679 -1.36495,-2.798543 -3.625704,-5.039928 -6.505422,-6.449689 -0.526467,-0.257731 -1.058883,-0.475546 -1.183146,-0.484033 -0.211253,-0.01443 -0.230731,0.01485 -0.299786,0.450671 -0.106828,0.674208 -0.0097,2.061729 0.195304,2.78961 0.4338,1.54034 1.350092,2.877358 2.606934,3.803941 1.616316,1.191597 3.421533,1.625594 5.466344,1.314179 z" fill-opacity="1"/></svg>