<svg xmlns="http://www.w3.org/2000/svg" xmlns:xlink="http://www.w3.org/1999/xlink" version="1.1" x="0px" y="0px" viewBox="0 0 100 125" enable-background="new 0 0 100 100" xml:space="preserve"><g><path fill="#000000" d="M89.716,61.822c0-6.007,0.4-8.074,0.721-9.734c0.229-1.192,0.428-2.222,0.428-4.147   c0-5.547-1.931-7.723-2.15-7.952c-0.572-0.6-1.503-0.626-2.117-0.06c-0.603,0.556-0.647,1.511-0.105,2.123   c0.014,0.016,1.339,1.635,1.339,5.889c0,1.626-0.164,2.48-0.374,3.573c-0.346,1.792-0.776,4.021-0.776,10.309   c0,2.58,0.544,5.4,1.119,8.384c0.336,1.748,1.115,6.12,1.295,9.963h-5.202l1.033-1.837c0.084-0.148,0.128-0.383,0.186-1.454   l0.006-0.111c0.022-0.321,0.507-7.922-2.505-13.157c-0.968-1.674-2.214-2.847-3.419-3.984c-1.321-1.245-2.568-2.421-3.468-4.205   c-0.03-0.078-0.064-0.155-0.106-0.22c-0.93-1.938-1.382-4.427-1.382-7.607c0-0.836-0.68-1.517-1.516-1.517   c-0.836,0-1.517,0.68-1.517,1.517c0,3.032,0.382,5.552,1.167,7.686c-10.18,5.049-20.382-1.937-20.482-2.006   c-0.33-0.235-0.736-0.329-1.13-0.26c-0.4,0.067-0.749,0.285-0.984,0.615c-0.485,0.681-0.327,1.63,0.355,2.116   c0.062,0.044,6.301,4.421,14.323,4.421c3.258,0,6.374-0.728,9.267-2.166c1.041,1.616,2.285,2.789,3.392,3.833   c0.938,0.885,1.828,1.723,2.539,2.768L76.39,75.723c-0.041,0.139-0.062,0.283-0.062,0.427v4.018h-4.666   c1.08-1.944,2.406-5.327,3.381-7.977c2.496-6.796,0.345-11.476,0.253-11.672c-0.356-0.754-1.26-1.077-2.019-0.722   c-0.755,0.358-1.079,1.263-0.723,2.017c0.017,0.037,1.685,3.772-0.357,9.331c-2.16,5.878-4.569,9.519-4.564,9.519   c-0.405,0.444-0.509,1.085-0.266,1.634c0.243,0.548,0.788,0.903,1.387,0.903h9.092c0.836,0,1.517-0.68,1.517-1.517v-5.317   l2.12-7.22c0.713,3.132,0.659,6.258,0.627,7.104l-2.127,4.69c-0.263,0.467-0.259,1.045,0.012,1.508   c0.27,0.463,0.772,0.751,1.309,0.751h9.348c0.836,0,1.517-0.68,1.517-1.517c0-4.224-0.869-9.364-1.388-12.052   C90.232,66.793,89.716,64.11,89.716,61.822z"/><path fill="#000000" d="M91.885,31.958c-4.049-5.668-10.039-8.086-20.029-8.086c-4.247,0-9.139,0.941-13.87,1.85   c-3.865,0.744-7.516,1.446-10.051,1.446c-1.958,0-2.999-0.953-4.439-2.273c-2.039-1.866-4.577-4.189-10.375-4.215   c-7.244,0-10.405,5.014-12.713,8.675c-1.565,2.482-2.593,4.003-3.972,4.003c-1.534-0.029-1.821-0.181-1.735-4.837   c0.011-0.609,0.023-1.253,0.023-1.929c0-9.093-8.125-9.198-8.206-9.198C5.68,17.396,5,18.076,5,18.912v2.042   c0,0.64,0.413,1.217,1.026,1.435c0.071,0.026,1.761,0.674,1.761,3.823c0,2.087-0.358,3.323-0.707,4.528   c-0.351,1.215-0.714,2.472-0.714,4.383c0,3.586,3.298,7.932,12.536,8.581c-0.103,0.395-0.132,0.764-0.086,1.101   c0.082,0.608,0.396,1.136,0.887,1.486c0.804,0.575,1.942,0.571,4.735,0.564l1.131-0.002c10.203,0,11.193,6.522,11.229,6.796   c0.245,1.96,0.264,4.393,0.264,7.37c0,5.005,0.866,14.188,1.077,16.345l-2.007,3.424c-0.274,0.468-0.276,1.05-0.007,1.52   c0.269,0.47,0.774,0.763,1.315,0.763h12.52c0.531,0,1.031-0.284,1.303-0.74c0.272-0.457,0.283-1.031,0.031-1.497l-2.311-4.281   c-0.425-2.92,0.452-7.063,1.971-9.278c3.201-4.667,3.236-7.229,3.209-7.696c-0.045-0.821-0.724-1.475-1.566-1.419   c-0.818,0.028-1.475,0.722-1.464,1.543c0,0.02-0.051,2.023-2.681,5.857c-2.03,2.961-3.071,8.01-2.421,11.744   c0.027,0.162,0.081,0.317,0.159,0.463l1.227,2.271h-0.974l-1.338-2.498l1.91-16.683c0.624-1.415,3.344-7.889,3.087-12.611   c-0.022-0.404-0.202-0.777-0.507-1.049c-0.304-0.271-0.695-0.408-1.089-0.382c-0.835,0.045-1.477,0.761-1.432,1.596   c0.242,4.449-2.886,11.341-2.919,11.413c-0.065,0.145-0.107,0.298-0.126,0.456l-1.991,17.386c-0.035,0.308,0.024,0.615,0.171,0.888   l0.795,1.484h-2.916l0.916-1.565c0.165-0.279,0.234-0.597,0.201-0.92c-0.01-0.108-1.111-11.098-1.111-16.534   c0-3.086-0.021-5.615-0.287-7.738c-0.011-0.101-0.315-2.505-2.303-4.86c-1.769-2.099-5.277-4.601-11.938-4.601l-1.139,0.003   c-0.78,0.002-1.636,0.006-2.275-0.017c0.117-0.191,0.256-0.395,0.406-0.58c0.366-0.452,0.441-1.083,0.192-1.606   c-0.25-0.526-0.788-0.866-1.369-0.866c-8.278,0-11.983-2.829-11.983-5.632c0-1.487,0.277-2.443,0.598-3.55   c0.386-1.334,0.824-2.846,0.824-5.361c0-2.289-0.654-3.83-1.42-4.849c1.197,0.821,2.291,2.358,2.291,5.232   c0,0.656-0.011,1.282-0.023,1.874c-0.07,3.851-0.142,7.833,4.711,7.924l0.098,0.001c3.078,0,4.738-2.632,6.496-5.42   c2.145-3.403,4.576-7.259,10.203-7.259c3.723,0.017,5.642,1.169,7.148,2.424c0.071,0.111,0.151,0.205,0.24,0.287   c1.598,1.445,2.513,3.509,2.513,5.661c0,6.226-2.425,9.126-7.634,9.126c-0.836,0-1.517,0.68-1.517,1.516   c0,0.836,0.68,1.516,1.517,1.516c9.281,0,10.667-7.618,10.667-12.159c0-0.706-0.077-1.424-0.228-2.143   c0.649,0.174,1.327,0.259,2.052,0.259c2.823,0,6.611-0.729,10.63-1.501c4.59-0.882,9.336-1.795,13.291-1.795   c9.015,0,14.103,1.975,17.561,6.816c5.2,7.28,1.172,23.972,1.131,24.141c-0.097,0.393-0.035,0.801,0.175,1.147   c0.21,0.346,0.542,0.59,0.937,0.687c0.816,0.196,1.633-0.302,1.832-1.111C93.674,57.843,97.87,40.337,91.885,31.958z"/></g><text x="0" y="115" fill="#000000" font-size="5px" font-weight="bold" font-family="'Helvetica Neue', Helvetica, Arial-Unicode, Arial, Sans-serif"></text><text x="0" y="120" fill="#000000" font-size="5px" font-weight="bold" font-family="'Helvetica Neue', Helvetica, Arial-Unicode, Arial, Sans-serif"></text></svg>