<svg width="66" height="73" viewBox="0 0 66 73" fill="none" xmlns="http://www.w3.org/2000/svg">
    <path fill-rule="evenodd" clip-rule="evenodd" d="M33.1027 72.0664C31.4687 72.0664 30.3215 70.9192 30.3215 69.5286V62.5757L24.2724 66.9908C23.7857 67.3732 23.2295 67.547 22.6732 67.547C21.8737 67.547 21.1088 67.1994 20.5874 66.5041C19.6487 65.3569 19.8921 63.5144 21.0393 62.5757L30.3215 56.0748V49.8172L27.9923 51.6945C27.8184 51.764 27.5751 51.8336 27.3665 51.8336C26.9493 51.8336 26.5321 51.6598 26.3583 51.2078C26.1497 50.7559 26.1497 49.8172 26.6017 49.6087L30.3215 46.5842V40.5352L25.2111 43.5597L24.5158 48.2181C24.5158 48.67 23.8205 49.3653 23.1252 49.3653C22.6732 49.3653 21.9779 48.4267 21.9779 47.7314L22.1865 44.9502L17.1109 47.7314L15.7203 59.0993C15.2336 60.4899 14.0863 61.4285 12.6957 61.4285C11.3051 61.1852 10.3665 60.038 10.3665 58.6474L11.3051 50.9992L5.25606 54.4757C4.90842 54.6843 4.45647 54.7885 4.00453 54.7885C3.06588 54.7885 2.09246 54.3366 1.77958 53.537C1.08428 52.3898 1.32764 50.7559 2.47488 50.0606L8.73255 46.5842L1.77958 43.803C0.180399 43.1077 -0.306309 41.7172 0.180399 40.3266C0.388988 39.388 1.77958 38.936 2.47488 38.936C2.71823 38.936 3.17017 38.936 3.65688 39.1446L14.0863 43.803L19.4053 40.7785L16.6242 39.6313C16.1722 39.388 15.9289 38.6927 16.1722 37.9974C16.4156 37.3021 16.6242 37.0588 17.3195 37.0588H17.8062L22.1865 39.1446L27.5403 36.1549L22.1865 33.3737L17.8062 35.4596C17.6671 35.4944 17.528 35.5291 17.389 35.5291C16.9023 35.5291 16.346 35.2858 16.1722 34.7643C15.9289 34.2776 16.1722 33.3737 16.8675 33.1304L19.4053 31.9832L14.0863 28.9587L3.65688 33.5823C3.27447 33.7909 2.89206 33.8604 2.54441 33.8604C1.57099 33.8604 0.667107 33.2347 0.180399 32.1917C-0.306309 30.8012 0.180399 29.202 1.77958 28.7153L8.73255 25.7256L2.47488 22.2492C1.32764 21.7625 0.875695 19.9199 1.77958 18.7727C2.26629 18.0774 3.17017 17.3822 4.10882 17.3822C4.56077 17.3822 4.80412 17.3822 5.25606 17.8341L11.3051 21.3105L10.3665 13.6624C10.1231 12.2718 11.3051 11.1246 12.6957 10.6379H12.9391C14.0863 10.6379 15.2336 11.5765 15.7203 12.9671L17.1109 24.335L22.1865 27.3247L21.9779 24.335C21.9779 23.8483 22.1865 22.9444 23.1252 22.9444H23.3685C24.0638 22.9444 24.5158 23.3964 24.5158 24.0917L25.2111 28.7153L30.3215 31.4965V25.4822L26.6017 22.7011C26.1497 22.2492 26.1497 21.5539 26.3583 20.8586C26.4974 20.5805 26.8798 20.4762 27.2622 20.4762C27.5403 20.4762 27.7837 20.5109 27.9923 20.6152L30.3215 22.2492V16.2002L21.0393 9.49065C19.8921 8.79537 19.6487 6.95286 20.5874 5.77087C21.1088 5.11035 21.8737 4.72795 22.6732 4.72795C23.2295 4.72795 23.7857 4.93653 24.2724 5.31894L30.3215 9.49065V2.53779C30.3215 1.14722 31.4687 0 33.1027 0C34.4933 0 35.6405 1.14722 35.6405 2.53779V9.49065L41.6548 5.31894C42.3501 4.867 42.5935 4.62365 43.0454 4.62365C43.9841 4.62365 44.6794 4.867 45.1313 5.77087C46.07 6.95286 45.8266 8.79537 44.6794 9.49065L35.3972 16.2002V22.2492L37.7264 20.6152C37.9698 20.3719 38.1784 20.3719 38.4217 20.3719C38.8737 20.3719 39.3604 20.6152 39.569 20.8586C40.0557 21.5539 40.0557 22.2492 39.3604 22.7011L35.6405 25.4822V31.4965L40.751 28.5067L41.4463 23.8483C41.4463 23.153 41.8982 22.7011 42.5935 22.7011H42.8368C43.5321 22.7011 43.9841 23.3964 43.9841 24.0917L43.7407 26.8728L48.8512 24.0917L50.4851 12.7237C50.6937 11.3332 51.6323 10.4293 53.0229 10.4293H53.2663C54.6569 10.6379 55.5955 11.8199 55.5955 13.419L54.6569 20.8586L60.9146 17.3822C61.1579 17.1388 61.6099 17.1388 62.0618 17.1388C62.7571 17.1388 63.6957 17.5907 64.391 18.5294C64.843 19.6766 64.6344 21.5539 63.4524 22.0058L57.4381 25.4822L64.391 28.5067C65.7816 28.9587 66.2336 30.3492 65.7816 31.9832C65.2602 33.339 64.3563 34.1038 63.3481 34.1038C63.0004 34.1038 62.6528 33.9995 62.3052 33.8257L51.8757 29.202L46.5219 32.1917L49.3031 33.3737C49.7898 33.5823 49.9984 34.521 49.7898 34.9729C49.616 35.4944 49.0597 35.7725 48.573 35.7725C48.434 35.7725 48.2602 35.7377 48.1559 35.6682L43.7407 33.5823L38.4217 36.6068L43.7407 39.388L48.1559 37.3021H48.6078C49.3031 37.3021 49.5465 37.754 49.7898 38.2407C49.9984 38.936 49.7898 39.6313 49.3031 40.0832L46.5219 41.2305L51.8757 44.0464L62.3052 39.388C62.5485 39.1446 62.7571 39.1446 63.4524 39.1446C64.391 39.1446 65.5383 39.6313 65.7816 40.5352C66.2336 41.9605 65.7816 43.5597 64.391 44.0464L57.4381 47.0361L63.4524 50.5125C64.6344 50.9992 65.0863 52.8417 64.391 53.989C63.9391 54.719 63.1395 55.171 62.3052 55.171C61.8184 55.171 61.3317 55.0319 60.9146 54.6843L54.6569 51.2078L55.5955 58.856C55.8041 60.2465 54.6569 61.4285 53.2663 61.6371C53.0577 61.7066 52.8491 61.7414 52.6405 61.7414C51.5281 61.7414 50.6589 60.6985 50.4851 59.3427L48.8512 48.2181L43.7407 45.1936L43.9841 48.2181C43.9841 48.67 43.7407 49.6087 42.8368 49.6087C42.3501 49.6087 41.4463 49.3653 41.4463 48.4267L40.751 43.803L35.6405 40.5352V46.5842L39.3604 49.6087C40.0557 49.8172 40.0557 50.7559 39.569 51.2078C39.4299 51.6598 39.0127 51.8336 38.5955 51.8336C38.3522 51.8336 38.1436 51.764 37.9698 51.6945L35.6405 49.8172V56.0748L44.9227 62.5757C46.07 63.5144 46.3133 65.1135 45.3747 66.5041C44.9575 67.1994 44.1579 67.547 43.3583 67.547C42.7673 67.547 42.1415 67.3732 41.6548 66.9908L35.6405 62.5757V69.5286C35.6405 70.9192 34.4933 72.0664 33.1027 72.0664V72.0664Z" fill="#92BCF6"/>
</svg>
